<svg width="189" height="656" viewBox="0 0 189 656" fill="none" xmlns="http://www.w3.org/2000/svg">
<rect x="6" y="194.332" width="177" height="461.668" rx="54" fill="#929292"/>
<ellipse cx="94.5" cy="97.1661" rx="94.5" ry="97.1661" fill="#929292"/>
<path d="M35.0568 289.618V280.89H38.108C38.7159 280.89 39.2173 280.995 39.6122 281.206C40.0071 281.413 40.3011 281.693 40.4943 282.045C40.6875 282.395 40.7841 282.782 40.7841 283.208C40.7841 283.583 40.7173 283.893 40.5838 284.137C40.4531 284.382 40.2798 284.575 40.0639 284.717C39.8509 284.859 39.6193 284.964 39.3693 285.032V285.118C39.6364 285.135 39.9048 285.228 40.1747 285.399C40.4446 285.569 40.6705 285.814 40.8523 286.132C41.0341 286.45 41.125 286.839 41.125 287.299C41.125 287.737 41.0256 288.13 40.8267 288.48C40.6278 288.829 40.3139 289.106 39.8849 289.311C39.456 289.515 38.8977 289.618 38.2102 289.618H35.0568ZM36.1136 288.68H38.2102C38.9006 288.68 39.3906 288.547 39.6804 288.279C39.973 288.01 40.1193 287.683 40.1193 287.299C40.1193 287.004 40.044 286.731 39.8935 286.481C39.7429 286.228 39.5284 286.027 39.25 285.876C38.9716 285.723 38.642 285.646 38.2614 285.646H36.1136V288.68ZM36.1136 284.726H38.0739C38.392 284.726 38.679 284.663 38.9347 284.538C39.1932 284.413 39.3977 284.237 39.5483 284.01C39.7017 283.782 39.7784 283.515 39.7784 283.208C39.7784 282.825 39.6449 282.5 39.3778 282.233C39.1108 281.963 38.6875 281.828 38.108 281.828H36.1136V284.726ZM43.7308 288.135L46.8842 283.072H48.0433V289.618H47.0376V284.555L43.9013 289.618H42.7251V283.072H43.7308V288.135ZM49.4762 287.947H50.5501C50.5728 288.243 50.7063 288.467 50.9506 288.62C51.1978 288.774 51.5188 288.851 51.9137 288.851C52.3171 288.851 52.6623 288.768 52.9492 288.603C53.2362 288.436 53.3796 288.166 53.3796 287.794C53.3796 287.575 53.3256 287.385 53.2177 287.223C53.1097 287.058 52.9577 286.93 52.7617 286.839C52.5657 286.748 52.3342 286.703 52.0671 286.703H50.9421V285.799H52.0671C52.4677 285.799 52.7631 285.708 52.9535 285.527C53.1467 285.345 53.2433 285.118 53.2433 284.845C53.2433 284.552 53.1396 284.318 52.9322 284.142C52.7248 283.963 52.4308 283.873 52.0501 283.873C51.6665 283.873 51.3469 283.96 51.0913 284.133C50.8356 284.304 50.7006 284.524 50.6864 284.794H49.6296C49.641 284.441 49.7489 284.13 49.9535 283.86C50.158 283.588 50.4364 283.375 50.7887 283.221C51.141 283.065 51.5444 282.987 51.9989 282.987C52.4592 282.987 52.8583 283.068 53.1964 283.23C53.5373 283.389 53.8001 283.606 53.9847 283.882C54.1722 284.154 54.266 284.464 54.266 284.811C54.266 285.18 54.1623 285.478 53.9549 285.706C53.7475 285.933 53.4876 286.095 53.1751 286.191V286.26C53.4222 286.277 53.6367 286.356 53.8185 286.498C54.0032 286.637 54.1467 286.821 54.2489 287.048C54.3512 287.272 54.4023 287.521 54.4023 287.794C54.4023 288.191 54.2958 288.538 54.0827 288.833C53.8697 289.126 53.5771 289.353 53.2049 289.515C52.8327 289.674 52.408 289.754 51.9308 289.754C51.4677 289.754 51.0529 289.679 50.6864 289.528C50.32 289.375 50.0288 289.163 49.8129 288.893C49.5998 288.62 49.4876 288.305 49.4762 287.947ZM56.4627 292.072C56.2923 292.072 56.1403 292.058 56.0067 292.029C55.8732 292.004 55.7809 291.978 55.7298 291.953L55.9854 291.066C56.2298 291.129 56.4457 291.152 56.6332 291.135C56.8207 291.118 56.9869 291.034 57.1317 290.883C57.2795 290.735 57.4144 290.495 57.5366 290.163L57.7241 289.652L55.3036 283.072H56.3945L58.2013 288.288H58.2695L60.0763 283.072H61.1673L58.3888 290.572C58.2638 290.91 58.109 291.19 57.9244 291.412C57.7397 291.636 57.5252 291.802 57.2809 291.91C57.0394 292.018 56.7667 292.072 56.4627 292.072ZM64.2216 289.771C63.8068 289.771 63.4304 289.693 63.0923 289.537C62.7543 289.377 62.4858 289.149 62.2869 288.851C62.0881 288.549 61.9886 288.186 61.9886 287.76C61.9886 287.385 62.0625 287.081 62.2102 286.848C62.358 286.612 62.5554 286.427 62.8026 286.294C63.0497 286.16 63.3224 286.061 63.6207 285.995C63.9219 285.927 64.2244 285.873 64.5284 285.833C64.9261 285.782 65.2486 285.744 65.4957 285.718C65.7457 285.69 65.9276 285.643 66.0412 285.578C66.1577 285.512 66.2159 285.399 66.2159 285.237V285.203C66.2159 284.782 66.1009 284.456 65.8707 284.223C65.6435 283.99 65.2983 283.873 64.8352 283.873C64.3551 283.873 63.9787 283.978 63.706 284.189C63.4332 284.399 63.2415 284.623 63.1307 284.862L62.1761 284.521C62.3466 284.123 62.5739 283.814 62.858 283.592C63.1449 283.368 63.4574 283.211 63.7955 283.123C64.1364 283.032 64.4716 282.987 64.8011 282.987C65.0114 282.987 65.2528 283.012 65.5256 283.064C65.8011 283.112 66.0668 283.213 66.3224 283.366C66.581 283.52 66.7955 283.751 66.9659 284.061C67.1364 284.37 67.2216 284.785 67.2216 285.305V289.618H66.2159V288.731H66.1648C66.0966 288.873 65.983 289.025 65.8239 289.187C65.6648 289.349 65.4531 289.487 65.1889 289.601C64.9247 289.714 64.6023 289.771 64.2216 289.771ZM64.375 288.868C64.7727 288.868 65.108 288.789 65.3807 288.633C65.6563 288.477 65.8636 288.275 66.0028 288.028C66.1449 287.781 66.2159 287.521 66.2159 287.248V286.328C66.1733 286.379 66.0795 286.426 65.9347 286.468C65.7926 286.508 65.6278 286.544 65.4403 286.575C65.2557 286.603 65.0753 286.629 64.8991 286.652C64.7259 286.672 64.5852 286.689 64.4773 286.703C64.2159 286.737 63.9716 286.792 63.7443 286.869C63.5199 286.943 63.3381 287.055 63.1989 287.206C63.0625 287.353 62.9943 287.555 62.9943 287.811C62.9943 288.16 63.1236 288.424 63.3821 288.603C63.6435 288.779 63.9744 288.868 64.375 288.868ZM68.4776 289.618V288.68H68.7163C68.9123 288.68 69.0756 288.642 69.2063 288.565C69.337 288.485 69.4421 288.348 69.5217 288.152C69.604 287.953 69.6665 287.677 69.7092 287.325C69.7546 286.97 69.7873 286.518 69.8072 285.97L69.9265 283.072H74.2901V289.618H73.2844V284.01H70.881L70.7788 286.345C70.756 286.882 70.7077 287.355 70.6339 287.764C70.5629 288.17 70.4535 288.511 70.3058 288.787C70.1609 289.062 69.9677 289.27 69.7262 289.409C69.4847 289.548 69.1822 289.618 68.8185 289.618H68.4776ZM77.0046 285.441H78.8796C79.6467 285.441 80.2333 285.636 80.6396 286.025C81.0458 286.414 81.2489 286.907 81.2489 287.504C81.2489 287.896 81.158 288.252 80.9762 288.574C80.7944 288.892 80.5273 289.146 80.1751 289.336C79.8228 289.524 79.391 289.618 78.8796 289.618H76.1353V283.072H77.141V288.68H78.8796C79.2773 288.68 79.604 288.575 79.8597 288.365C80.1154 288.154 80.2433 287.885 80.2433 287.555C80.2433 287.208 80.1154 286.926 79.8597 286.707C79.604 286.488 79.2773 286.379 78.8796 286.379H77.0046V285.441ZM87.1605 285.885V286.822H83.5469V285.885H87.1605ZM83.7855 283.072V289.618H82.7798V283.072H83.7855ZM87.9276 283.072V289.618H86.9219V283.072H87.9276ZM90.6335 285.441H92.5085C93.2756 285.441 93.8622 285.636 94.2685 286.025C94.6747 286.414 94.8778 286.907 94.8778 287.504C94.8778 287.896 94.7869 288.252 94.6051 288.574C94.4233 288.892 94.1563 289.146 93.804 289.336C93.4517 289.524 93.0199 289.618 92.5085 289.618H89.7642V283.072H90.7699V288.68H92.5085C92.9063 288.68 93.233 288.575 93.4886 288.365C93.7443 288.154 93.8722 287.885 93.8722 287.555C93.8722 287.208 93.7443 286.926 93.4886 286.707C93.233 286.488 92.9063 286.379 92.5085 286.379H90.6335V285.441ZM95.9176 289.618V283.072H96.9233V289.618H95.9176ZM99.7699 288.135L102.923 283.072H104.082V289.618H103.077V284.555L99.9403 289.618H98.7642V283.072H99.7699V288.135ZM102.259 280.89H103.196C103.196 281.351 103.037 281.727 102.719 282.02C102.401 282.312 101.969 282.458 101.423 282.458C100.886 282.458 100.459 282.312 100.141 282.02C99.8253 281.727 99.6676 281.351 99.6676 280.89H100.605C100.605 281.112 100.666 281.306 100.788 281.474C100.913 281.642 101.125 281.726 101.423 281.726C101.722 281.726 101.935 281.642 102.062 281.474C102.193 281.306 102.259 281.112 102.259 280.89ZM109.299 289.618V283.072H114.447V289.618H113.441V284.01H110.305V289.618H109.299ZM116.284 292.072V283.072H117.255V284.112H117.375C117.449 283.998 117.551 283.853 117.681 283.677C117.815 283.498 118.005 283.339 118.252 283.2C118.502 283.058 118.841 282.987 119.267 282.987C119.818 282.987 120.304 283.125 120.724 283.4C121.145 283.676 121.473 284.066 121.708 284.572C121.944 285.078 122.062 285.674 122.062 286.362C122.062 287.055 121.944 287.656 121.708 288.164C121.473 288.67 121.146 289.062 120.728 289.341C120.311 289.616 119.829 289.754 119.284 289.754C118.863 289.754 118.527 289.684 118.274 289.545C118.021 289.403 117.826 289.243 117.69 289.064C117.554 288.882 117.449 288.731 117.375 288.612H117.289V292.072H116.284ZM117.272 286.345C117.272 286.839 117.345 287.275 117.49 287.653C117.635 288.028 117.846 288.322 118.125 288.535C118.403 288.745 118.744 288.851 119.147 288.851C119.568 288.851 119.919 288.74 120.2 288.518C120.484 288.294 120.697 287.993 120.839 287.615C120.984 287.234 121.056 286.811 121.056 286.345C121.056 285.885 120.985 285.47 120.843 285.101C120.704 284.728 120.493 284.434 120.208 284.218C119.927 284 119.574 283.89 119.147 283.89C118.738 283.89 118.395 283.994 118.116 284.201C117.838 284.406 117.627 284.693 117.485 285.062C117.343 285.429 117.272 285.856 117.272 286.345ZM124.602 288.135L127.755 283.072H128.914V289.618H127.909V284.555L124.772 289.618H123.596V283.072H124.602V288.135ZM130.347 287.947H131.421C131.444 288.243 131.577 288.467 131.822 288.62C132.069 288.774 132.39 288.851 132.785 288.851C133.188 288.851 133.533 288.768 133.82 288.603C134.107 288.436 134.251 288.166 134.251 287.794C134.251 287.575 134.197 287.385 134.089 287.223C133.981 287.058 133.829 286.93 133.633 286.839C133.437 286.748 133.205 286.703 132.938 286.703H131.813V285.799H132.938C133.339 285.799 133.634 285.708 133.825 285.527C134.018 285.345 134.114 285.118 134.114 284.845C134.114 284.552 134.011 284.318 133.803 284.142C133.596 283.963 133.302 283.873 132.921 283.873C132.538 283.873 132.218 283.96 131.962 284.133C131.707 284.304 131.572 284.524 131.558 284.794H130.501C130.512 284.441 130.62 284.13 130.825 283.86C131.029 283.588 131.308 283.375 131.66 283.221C132.012 283.065 132.415 282.987 132.87 282.987C133.33 282.987 133.729 283.068 134.067 283.23C134.408 283.389 134.671 283.606 134.856 283.882C135.043 284.154 135.137 284.464 135.137 284.811C135.137 285.18 135.033 285.478 134.826 285.706C134.619 285.933 134.359 286.095 134.046 286.191V286.26C134.293 286.277 134.508 286.356 134.69 286.498C134.874 286.637 135.018 286.821 135.12 287.048C135.222 287.272 135.273 287.521 135.273 287.794C135.273 288.191 135.167 288.538 134.954 288.833C134.741 289.126 134.448 289.353 134.076 289.515C133.704 289.674 133.279 289.754 132.802 289.754C132.339 289.754 131.924 289.679 131.558 289.528C131.191 289.375 130.9 289.163 130.684 288.893C130.471 288.62 130.359 288.305 130.347 287.947ZM141.067 285.885V286.822H137.453V285.885H141.067ZM137.692 283.072V289.618H136.686V283.072H137.692ZM141.834 283.072V289.618H140.828V283.072H141.834ZM145.597 289.771C145.182 289.771 144.805 289.693 144.467 289.537C144.129 289.377 143.861 289.149 143.662 288.851C143.463 288.549 143.364 288.186 143.364 287.76C143.364 287.385 143.438 287.081 143.585 286.848C143.733 286.612 143.93 286.427 144.178 286.294C144.425 286.16 144.697 286.061 144.996 285.995C145.297 285.927 145.599 285.873 145.903 285.833C146.301 285.782 146.624 285.744 146.871 285.718C147.121 285.69 147.303 285.643 147.416 285.578C147.533 285.512 147.591 285.399 147.591 285.237V285.203C147.591 284.782 147.476 284.456 147.246 284.223C147.018 283.99 146.673 283.873 146.21 283.873C145.73 283.873 145.354 283.978 145.081 284.189C144.808 284.399 144.616 284.623 144.506 284.862L143.551 284.521C143.722 284.123 143.949 283.814 144.233 283.592C144.52 283.368 144.832 283.211 145.17 283.123C145.511 283.032 145.847 282.987 146.176 282.987C146.386 282.987 146.628 283.012 146.901 283.064C147.176 283.112 147.442 283.213 147.697 283.366C147.956 283.52 148.17 283.751 148.341 284.061C148.511 284.37 148.597 284.785 148.597 285.305V289.618H147.591V288.731H147.54C147.472 288.873 147.358 289.025 147.199 289.187C147.04 289.349 146.828 289.487 146.564 289.601C146.3 289.714 145.977 289.771 145.597 289.771ZM145.75 288.868C146.148 288.868 146.483 288.789 146.756 288.633C147.031 288.477 147.239 288.275 147.378 288.028C147.52 287.781 147.591 287.521 147.591 287.248V286.328C147.548 286.379 147.455 286.426 147.31 286.468C147.168 286.508 147.003 286.544 146.815 286.575C146.631 286.603 146.45 286.629 146.274 286.652C146.101 286.672 145.96 286.689 145.852 286.703C145.591 286.737 145.347 286.792 145.119 286.869C144.895 286.943 144.713 287.055 144.574 287.206C144.438 287.353 144.369 287.555 144.369 287.811C144.369 288.16 144.499 288.424 144.757 288.603C145.018 288.779 145.349 288.868 145.75 288.868ZM150.432 289.618V283.072H151.438V285.919H152.103L154.455 283.072H155.75L153.108 286.226L155.784 289.618H154.489L152.341 286.856H151.438V289.618H150.432Z" fill="black"/>
</svg>
